<?xml version="1.0" encoding="UTF-8"?>
<svg width="284px" height="32px" viewBox="0 0 284 32" version="1.1" xmlns="http://www.w3.org/2000/svg" xmlns:xlink="http://www.w3.org/1999/xlink">
    <!-- Generator: Sketch 63.1 (92452) - https://sketch.com -->
    <title>logo copy</title>
    <desc>Created with Sketch.</desc>
    <g id="logo-copy" stroke="none" stroke-width="1" fill="none" fill-rule="evenodd">
        <rect fill="#FFFFFF" x="0" y="0" width="284" height="32"></rect>
        <g id="Group-3">
            <polygon id="Path" fill="#FF2500" points="13.5 0.423076923 16.3557692 11.0673077 27 8.21153846 19.2115385 16 27 23.7884615 16.3557692 20.9326923 13.5 31.5769231 10.6442308 20.9326923 0 23.7884615 7.78846154 16 0 8.21153846 10.6442308 11.0673077"></polygon>
            <path d="M41.326,24.352 C44.868,24.352 48.168,22.834 48.168,18.5 C48.168,16.124 45.946,14.408 43.922,13.55 C41.854,12.67 40.138,11.944 40.138,10.932 C40.138,9.942 40.886,9.282 42.294,9.282 C44.164,9.282 45.968,10.558 45.968,10.558 L47.64,7.258 C47.64,7.258 45.308,5.52 42.008,5.52 C39.082,5.52 36.09,7.698 36.09,11.086 C36.09,12.978 37.366,14.672 39.544,15.75 C41.7,16.828 43.636,17.422 43.636,18.742 C43.636,20.436 41.92,20.524 41.018,20.524 C38.994,20.524 36.574,18.478 36.574,18.478 L34.506,21.954 C34.506,21.954 37.08,24.352 41.326,24.352 Z M53.998,24 L53.998,17.62 C53.998,16.498 55.142,15.42 56.308,15.42 C57.562,15.42 58.332,16.498 58.332,17.62 L58.332,24 L62.226,24 L62.226,16.564 C62.226,13.418 59.344,12.384 57.276,12.384 C56.044,12.384 54.922,13.022 53.998,13.902 L53.998,5.08 L50.104,5.08 L50.104,24 L53.998,24 Z M70.564,24.352 C74.37,24.352 77.296,21.888 77.296,18.368 C77.296,14.848 74.37,12.384 70.564,12.384 C66.758,12.384 63.832,14.848 63.832,18.368 C63.832,21.888 66.758,24.352 70.564,24.352 Z M70.564,21.03 C69.09,21.03 67.924,19.93 67.924,18.368 C67.924,16.806 69.09,15.706 70.564,15.706 C72.038,15.706 73.204,16.806 73.204,18.368 C73.204,19.93 72.038,21.03 70.564,21.03 Z M82.972,29.72 L82.972,22.79 C83.852,23.692 85.15,24.352 86.668,24.352 C89.968,24.352 92.256,21.668 92.256,18.368 C92.256,15.068 89.968,12.384 86.668,12.384 C85.15,12.384 83.896,12.912 82.972,13.814 L82.972,12.736 L79.012,12.736 L79.012,29.72 L82.972,29.72 Z M85.502,21.03 C83.984,21.03 82.884,19.908 82.884,18.368 C82.884,16.806 84.05,15.706 85.502,15.706 C86.976,15.706 88.12,16.806 88.12,18.368 C88.12,19.908 87.086,21.03 85.502,21.03 Z M104.246,24 L104.246,5.85 L100.11,5.85 L100.11,24 L104.246,24 Z M110.78,24 L110.78,17.62 C110.78,16.498 111.924,15.42 113.09,15.42 C114.344,15.42 115.114,16.498 115.114,17.62 L115.114,24 L119.008,24 L119.008,16.564 C119.008,13.418 116.126,12.384 114.058,12.384 C112.826,12.384 111.704,13.022 110.78,13.902 L110.78,12.736 L106.886,12.736 L106.886,24 L110.78,24 Z M131.57,24 L131.57,17.268 L134.056,17.268 C137.598,17.268 140.26,15.178 140.26,11.438 C140.26,7.676 137.598,5.85 134.056,5.85 L127.434,5.85 L127.434,24 L131.57,24 Z M132.736,13.968 L131.57,13.968 L131.57,9.15 L132.736,9.15 C134.364,9.15 135.904,9.7 135.904,11.57 C135.904,13.418 134.364,13.968 132.736,13.968 Z M146.002,24 L146.002,5.08 L142.086,5.08 L142.086,24 L146.002,24 Z M153.438,24.352 C154.956,24.352 156.254,23.692 157.134,22.79 L157.134,24 L161.094,24 L161.094,12.736 L157.134,12.736 L157.134,13.814 C156.21,12.912 154.956,12.384 153.438,12.384 C150.138,12.384 147.85,15.068 147.85,18.368 C147.85,21.668 150.138,24.352 153.438,24.352 Z M154.604,21.03 C153.02,21.03 151.986,19.908 151.986,18.368 C151.986,16.806 153.13,15.706 154.604,15.706 C156.056,15.706 157.222,16.806 157.222,18.368 C157.222,19.908 156.122,21.03 154.604,21.03 Z M169.102,24.352 C171.61,24.352 172.886,23.34 172.886,23.34 L171.566,20.634 C171.566,20.634 170.84,21.162 169.674,21.162 C168.2,21.162 166.99,19.93 166.99,18.368 C166.99,16.828 168.2,15.574 169.674,15.574 C170.84,15.574 171.566,16.102 171.566,16.102 L172.886,13.44 C172.886,13.44 171.61,12.384 169.102,12.384 C165.824,12.384 162.854,15.046 162.854,18.368 C162.854,21.668 165.846,24.352 169.102,24.352 Z M179.86,24.352 C182.368,24.352 184.436,23.538 185.712,21.404 L182.896,19.996 C181.95,21.008 181.4,21.25 180.146,21.25 C179.156,21.25 177.704,20.634 177.704,18.896 L185.888,18.896 C185.91,18.764 185.91,18.522 185.91,18.368 C185.91,14.408 183.292,12.384 179.86,12.384 C176.45,12.384 173.656,15.046 173.656,18.346 C173.656,21.624 176.45,24.352 179.86,24.352 Z M182.104,16.74 L177.814,16.74 C177.88,15.706 178.628,14.914 179.97,14.914 C181.114,14.914 181.928,15.552 182.104,16.74 Z M202.058,24.352 C205.996,24.352 208.02,22.68 208.02,22.68 L206.26,19.16 C206.26,19.16 204.808,20.282 202.696,20.282 C198.538,20.282 196.712,17.378 196.712,14.936 C196.712,12.516 198.538,9.59 202.696,9.59 C204.808,9.59 206.26,10.712 206.26,10.712 L208.02,7.192 L207.999012,7.17532424 C207.77526,7.00107958 205.764353,5.52 202.058,5.52 C196.91,5.52 192.224,9.722 192.224,14.936 C192.224,20.128 196.932,24.352 202.058,24.352 Z M213.498,24 L213.498,17.62 C213.498,16.498 214.642,15.42 215.808,15.42 C217.062,15.42 217.832,16.498 217.832,17.62 L217.832,24 L221.726,24 L221.726,16.564 C221.726,13.418 218.844,12.384 216.776,12.384 C215.544,12.384 214.422,13.022 213.498,13.902 L213.498,5.08 L209.604,5.08 L209.604,24 L213.498,24 Z M226.082,10.36 C227.358,10.36 228.392,9.326 228.392,8.05 C228.392,6.774 227.358,5.74 226.082,5.74 C224.806,5.74 223.772,6.774 223.772,8.05 C223.772,9.326 224.806,10.36 226.082,10.36 Z M228.018,24 L228.018,12.736 L224.146,12.736 L224.146,24 L228.018,24 Z M236.092,24.352 C238.6,24.352 239.876,23.34 239.876,23.34 L238.556,20.634 C238.556,20.634 237.83,21.162 236.664,21.162 C235.19,21.162 233.98,19.93 233.98,18.368 C233.98,16.828 235.19,15.574 236.664,15.574 C237.83,15.574 238.556,16.102 238.556,16.102 L239.876,13.44 L239.855014,13.4234757 C239.680203,13.2893498 238.414222,12.384 236.092,12.384 C232.814,12.384 229.844,15.046 229.844,18.368 C229.844,21.668 232.836,24.352 236.092,24.352 Z M246.146,24.352 C247.664,24.352 248.962,23.692 249.842,22.79 L249.842,24 L253.802,24 L253.802,12.736 L249.842,12.736 L249.842,13.814 C248.918,12.912 247.664,12.384 246.146,12.384 C242.846,12.384 240.558,15.068 240.558,18.368 C240.558,21.668 242.846,24.352 246.146,24.352 Z M247.312,21.03 C245.728,21.03 244.694,19.908 244.694,18.368 C244.694,16.806 245.838,15.706 247.312,15.706 C248.764,15.706 249.93,16.806 249.93,18.368 C249.93,19.908 248.83,21.03 247.312,21.03 Z M262.162,30.05 C266.012,30.05 268.828,28.092 268.828,24.308 L268.828,12.736 L264.868,12.736 L264.868,13.814 C263.944,12.912 262.69,12.384 261.172,12.384 C257.872,12.384 255.584,15.068 255.584,18.368 C255.584,21.668 257.872,24.352 261.172,24.352 C262.69,24.352 263.988,23.692 264.868,22.79 L264.868,24.022 C264.868,26.024 263.218,26.662 262.162,26.662 C260.468,26.662 259.522,25.892 259.104,25.21 L255.914,26.772 C257.102,29.522 259.808,30.05 262.162,30.05 Z M262.338,21.03 C260.754,21.03 259.72,19.908 259.72,18.368 C259.72,16.806 260.864,15.706 262.338,15.706 C263.79,15.706 264.956,16.806 264.956,18.368 C264.956,19.908 263.856,21.03 262.338,21.03 Z M277.21,24.352 C281.016,24.352 283.942,21.888 283.942,18.368 C283.942,14.848 281.016,12.384 277.21,12.384 C273.404,12.384 270.478,14.848 270.478,18.368 C270.478,21.888 273.404,24.352 277.21,24.352 Z M277.21,21.03 C275.736,21.03 274.57,19.93 274.57,18.368 C274.57,16.806 275.736,15.706 277.21,15.706 C278.684,15.706 279.85,16.806 279.85,18.368 C279.85,19.93 278.684,21.03 277.21,21.03 Z" id="ShopInPlaceChicago" fill="#000000" fill-rule="nonzero"></path>
        </g>
    </g>
</svg>